<svg width="308" height="32" viewBox="0 0 308 32" fill="none" xmlns="http://www.w3.org/2000/svg">
<path d="M307.17 7.40103V11.5229H296.075V7.40103H307.17ZM298.4 3.18758H303.998V19.4575C303.998 19.801 304.052 20.0796 304.159 20.2933C304.273 20.4994 304.437 20.6482 304.651 20.7398C304.865 20.8238 305.121 20.8658 305.418 20.8658C305.632 20.8658 305.857 20.8467 306.094 20.8085C306.338 20.7627 306.521 20.7246 306.643 20.694L307.491 24.7357C307.223 24.8121 306.846 24.9075 306.357 25.022C305.876 25.1365 305.3 25.209 304.628 25.2395C303.315 25.3006 302.189 25.1479 301.251 24.7815C300.319 24.4075 299.606 23.8274 299.109 23.0412C298.621 22.255 298.384 21.2665 298.4 20.0757V3.18758Z" fill="#333333"/>
<path d="M294.697 12.7709L289.556 12.9083C289.502 12.5419 289.357 12.2175 289.121 11.9351C288.884 11.645 288.575 11.4198 288.193 11.2596C287.819 11.0916 287.384 11.0077 286.888 11.0077C286.239 11.0077 285.686 11.1374 285.228 11.3969C284.777 11.6565 284.556 12.0076 284.564 12.4503C284.556 12.7938 284.693 13.0915 284.976 13.3434C285.266 13.5953 285.781 13.7975 286.522 13.9502L289.911 14.5914C291.666 14.9272 292.971 15.4845 293.826 16.263C294.689 17.0416 295.124 18.0721 295.132 19.3544C295.124 20.5604 294.765 21.61 294.055 22.5031C293.353 23.3961 292.391 24.0907 291.17 24.5869C289.949 25.0754 288.552 25.3197 286.979 25.3197C284.468 25.3197 282.487 24.8044 281.037 23.774C279.594 22.7359 278.77 21.3466 278.564 19.6063L284.094 19.4689C284.216 20.1101 284.533 20.5986 285.044 20.9345C285.556 21.2703 286.209 21.4382 287.002 21.4382C287.72 21.4382 288.304 21.3047 288.754 21.0375C289.205 20.7704 289.434 20.4154 289.441 19.9727C289.434 19.5758 289.258 19.259 288.914 19.0224C288.571 18.7781 288.033 18.5873 287.3 18.4499L284.232 17.866C282.468 17.5454 281.155 16.9538 280.293 16.0913C279.43 15.2211 279.003 14.1143 279.011 12.7709C279.003 11.5954 279.316 10.5917 279.949 9.75965C280.583 8.92001 281.484 8.27884 282.652 7.83612C283.819 7.3934 285.197 7.17204 286.785 7.17204C289.166 7.17204 291.044 7.67201 292.418 8.67194C293.792 9.66424 294.551 11.0306 294.697 12.7709Z" fill="#333333"/>
<path d="M268.781 25.3197C266.942 25.3197 265.354 24.9571 264.018 24.232C262.69 23.4992 261.667 22.4573 260.95 21.1062C260.24 19.7475 259.885 18.1331 259.885 16.263C259.885 14.4464 260.244 12.8587 260.961 11.5C261.679 10.1337 262.69 9.07268 263.995 8.317C265.3 7.5537 266.838 7.17204 268.609 7.17204C269.861 7.17204 271.006 7.36669 272.044 7.75597C273.082 8.14526 273.979 8.72155 274.735 9.48486C275.491 10.2482 276.078 11.1909 276.498 12.3129C276.918 13.4273 277.128 14.7059 277.128 16.1485V17.5454H261.843V14.2937H271.918C271.911 13.6983 271.769 13.1678 271.495 12.7022C271.22 12.2366 270.842 11.874 270.361 11.6145C269.888 11.3473 269.342 11.2138 268.724 11.2138C268.098 11.2138 267.537 11.355 267.041 11.6374C266.545 11.9122 266.152 12.29 265.861 12.7709C265.571 13.2441 265.419 13.7823 265.403 14.3853V17.6942C265.403 18.4117 265.545 19.0415 265.827 19.5834C266.11 20.1177 266.51 20.5337 267.029 20.8314C267.548 21.1291 268.167 21.278 268.884 21.278C269.38 21.278 269.831 21.2093 270.235 21.0719C270.64 20.9345 270.987 20.7322 271.277 20.465C271.567 20.1979 271.785 19.8696 271.93 19.4804L277.071 19.6292C276.857 20.7818 276.387 21.7856 275.662 22.6405C274.945 23.4877 274.002 24.148 272.834 24.6212C271.666 25.0869 270.315 25.3197 268.781 25.3197Z" fill="#333333"/>
<path d="M258.537 7.40103V11.5229H247.443V7.40103H258.537ZM249.767 3.18758H255.366V19.4575C255.366 19.801 255.419 20.0796 255.526 20.2933C255.641 20.4994 255.805 20.6482 256.019 20.7398C256.232 20.8238 256.488 20.8658 256.786 20.8658C256.999 20.8658 257.225 20.8467 257.461 20.8085C257.705 20.7627 257.889 20.7246 258.011 20.694L258.858 24.7357C258.591 24.8121 258.213 24.9075 257.724 25.022C257.244 25.1365 256.667 25.209 255.996 25.2395C254.683 25.3006 253.557 25.1479 252.618 24.7815C251.687 24.4075 250.973 23.8274 250.477 23.0412C249.988 22.255 249.752 21.2665 249.767 20.0757V3.18758Z" fill="#333333"/>
<path d="M234.419 14.9577V24.9876H228.821V7.40098H234.145V10.6298H234.339C234.729 9.55351 235.393 8.71005 236.331 8.09941C237.27 7.48113 238.389 7.17199 239.686 7.17199C240.923 7.17199 241.995 7.4506 242.904 8.00781C243.82 8.55739 244.529 9.32833 245.033 10.3206C245.545 11.3053 245.796 12.4579 245.789 13.7784V24.9876H240.19V14.8776C240.198 13.9005 239.95 13.1372 239.446 12.5877C238.95 12.0381 238.259 11.7633 237.373 11.7633C236.786 11.7633 236.267 11.893 235.816 12.1526C235.374 12.4045 235.03 12.767 234.786 13.2403C234.549 13.7135 234.427 14.286 234.419 14.9577Z" fill="#333333"/>
<path d="M217.712 25.3196C215.865 25.3196 214.277 24.9418 212.949 24.1861C211.629 23.4228 210.61 22.3618 209.892 21.0031C209.182 19.6368 208.827 18.0529 208.827 16.2515C208.827 14.4425 209.182 12.8586 209.892 11.4999C210.61 10.1336 211.629 9.07262 212.949 8.31695C214.277 7.55364 215.865 7.17199 217.712 7.17199C219.56 7.17199 221.143 7.55364 222.464 8.31695C223.792 9.07262 224.811 10.1336 225.521 11.4999C226.238 12.8586 226.597 14.4425 226.597 16.2515C226.597 18.0529 226.238 19.6368 225.521 21.0031C224.811 22.3618 223.792 23.4228 222.464 24.1861C221.143 24.9418 219.56 25.3196 217.712 25.3196ZM217.747 21.0947C218.418 21.0947 218.987 20.8886 219.453 20.4764C219.918 20.0642 220.273 19.4918 220.517 18.759C220.769 18.0262 220.895 17.1789 220.895 16.2172C220.895 15.2401 220.769 14.3852 220.517 13.6525C220.273 12.9197 219.918 12.3472 219.453 11.935C218.987 11.5228 218.418 11.3167 217.747 11.3167C217.052 11.3167 216.464 11.5228 215.983 11.935C215.51 12.3472 215.148 12.9197 214.896 13.6525C214.651 14.3852 214.529 15.2401 214.529 16.2172C214.529 17.1789 214.651 18.0262 214.896 18.759C215.148 19.4918 215.51 20.0642 215.983 20.4764C216.464 20.8886 217.052 21.0947 217.747 21.0947Z" fill="#333333"/>
<path d="M206.905 10.0342H201.18C201.104 9.4465 200.947 8.916 200.711 8.44275C200.474 7.9695 200.161 7.56495 199.772 7.22909C199.382 6.89324 198.921 6.63753 198.386 6.46197C197.86 6.27877 197.276 6.18718 196.634 6.18718C195.497 6.18718 194.516 6.46578 193.692 7.023C192.875 7.58021 192.245 8.3855 191.803 9.43887C191.368 10.4922 191.15 11.767 191.15 13.263C191.15 14.8202 191.371 16.1254 191.814 17.1788C192.265 18.2245 192.894 19.0145 193.703 19.5489C194.52 20.0755 195.486 20.3389 196.6 20.3389C197.226 20.3389 197.795 20.2587 198.306 20.0984C198.825 19.9382 199.279 19.7053 199.669 19.4C200.066 19.0871 200.39 18.7092 200.642 18.2665C200.901 17.8162 201.081 17.3086 201.18 16.7437L206.905 16.7781C206.806 17.8162 206.504 18.839 206 19.8466C205.504 20.8541 204.821 21.7739 203.951 22.6059C203.081 23.4303 202.02 24.0867 200.768 24.5752C199.524 25.0638 198.096 25.308 196.486 25.308C194.364 25.308 192.463 24.8424 190.784 23.9112C189.112 22.9723 187.792 21.606 186.822 19.8122C185.853 18.0184 185.368 15.8354 185.368 13.263C185.368 10.6831 185.86 8.49618 186.845 6.70241C187.83 4.90864 189.162 3.54614 190.841 2.6149C192.52 1.68367 194.402 1.21805 196.486 1.21805C197.905 1.21805 199.218 1.41651 200.424 1.81343C201.63 2.20272 202.691 2.7752 203.607 3.53087C204.523 4.27891 205.267 5.1987 205.84 6.29023C206.412 7.38175 206.767 8.62976 206.905 10.0342Z" fill="#333333"/>
<path d="M170.17 31.9998C168.499 31.9998 167.067 31.767 165.877 31.3014C164.686 30.8358 163.751 30.1984 163.071 29.3893C162.392 28.5802 161.984 27.6642 161.846 26.6414L167.147 26.3437C167.247 26.7025 167.43 27.0154 167.697 27.2826C167.972 27.5497 168.327 27.7558 168.762 27.9009C169.205 28.0459 169.724 28.1184 170.319 28.1184C171.258 28.1184 172.033 27.8894 172.643 27.4314C173.262 26.9811 173.571 26.1911 173.571 25.0614V21.97H173.376C173.155 22.5119 172.819 22.9966 172.368 23.4241C171.918 23.8515 171.357 24.1874 170.685 24.4316C170.021 24.6759 169.258 24.798 168.395 24.798C167.113 24.798 165.938 24.5003 164.869 23.905C163.808 23.3019 162.957 22.3707 162.316 21.1112C161.682 19.8442 161.365 18.2145 161.365 16.2223C161.365 14.169 161.694 12.4782 162.35 11.1501C163.007 9.81431 163.865 8.82582 164.926 8.18464C165.995 7.54347 167.144 7.22288 168.373 7.22288C169.296 7.22288 170.086 7.38317 170.743 7.70376C171.407 8.01672 171.952 8.42127 172.38 8.91742C172.807 9.41357 173.132 9.9288 173.353 10.4631H173.513V7.45187H179.089V25.1072C179.089 26.5956 178.715 27.8512 177.967 28.8741C177.219 29.8969 176.174 30.6717 174.83 31.1983C173.487 31.7327 171.933 31.9998 170.17 31.9998ZM170.342 20.722C171.021 20.722 171.601 20.5426 172.082 20.1838C172.563 19.8251 172.933 19.3098 173.193 18.6381C173.452 17.9664 173.582 17.1611 173.582 16.2223C173.582 15.2681 173.452 14.4476 173.193 13.7606C172.941 13.066 172.571 12.5317 172.082 12.1577C171.601 11.7836 171.021 11.5966 170.342 11.5966C169.647 11.5966 169.06 11.7875 168.579 12.1691C168.098 12.5508 167.731 13.0889 167.479 13.7835C167.235 14.4705 167.113 15.2834 167.113 16.2223C167.113 17.1611 167.239 17.9664 167.491 18.6381C167.743 19.3098 168.105 19.8251 168.579 20.1838C169.06 20.5426 169.647 20.722 170.342 20.722Z" fill="#333333"/>
<path d="M147.781 15.0086V25.0385H142.182V7.45187H147.507V10.6807H147.701C148.09 9.6044 148.755 8.76094 149.693 8.1503C150.632 7.53202 151.751 7.22288 153.048 7.22288C154.285 7.22288 155.357 7.50149 156.265 8.0587C157.181 8.60828 157.891 9.37922 158.395 10.3715C158.907 11.3562 159.158 12.5088 159.151 13.8293V25.0385H153.552V14.9285C153.56 13.9514 153.311 13.1881 152.808 12.6385C152.312 12.089 151.621 11.8142 150.735 11.8142C150.148 11.8142 149.629 11.9439 149.178 12.2035C148.735 12.4553 148.392 12.8179 148.148 13.2912C147.911 13.7644 147.789 14.3369 147.781 15.0086Z" fill="#333333"/>
<path d="M133.665 25.0384V7.45184H139.264V25.0384H133.665ZM136.47 5.40236C135.684 5.40236 135.008 5.14283 134.443 4.62378C133.878 4.0971 133.596 3.46356 133.596 2.72315C133.596 1.99037 133.878 1.36446 134.443 0.845415C135.008 0.318733 135.684 0.0553913 136.47 0.0553913C137.264 0.0553913 137.939 0.318733 138.496 0.845415C139.061 1.36446 139.344 1.99037 139.344 2.72315C139.344 3.46356 139.061 4.0971 138.496 4.62378C137.939 5.14283 137.264 5.40236 136.47 5.40236Z" fill="#333333"/>
<path d="M113.686 31.6334V7.45187H119.228V10.4631H119.399C119.628 9.9288 119.953 9.41357 120.373 8.91742C120.8 8.42127 121.342 8.01672 121.998 7.70376C122.662 7.38317 123.456 7.22288 124.38 7.22288C125.601 7.22288 126.742 7.54347 127.803 8.18464C128.872 8.82582 129.734 9.81431 130.391 11.1501C131.047 12.4859 131.376 14.1881 131.376 16.2566C131.376 18.2488 131.059 19.9167 130.425 21.2601C129.799 22.6035 128.952 23.6111 127.883 24.2828C126.822 24.9545 125.643 25.2904 124.346 25.2904C123.46 25.2904 122.693 25.1453 122.044 24.8553C121.395 24.5652 120.85 24.1836 120.407 23.7103C119.972 23.2371 119.636 22.7295 119.399 22.1875H119.285V31.6334H113.686ZM119.17 16.2452C119.17 17.1917 119.296 18.016 119.548 18.7183C119.808 19.4205 120.178 19.9663 120.659 20.3556C121.147 20.7372 121.731 20.9281 122.411 20.9281C123.098 20.9281 123.681 20.7372 124.162 20.3556C124.643 19.9663 125.006 19.4205 125.25 18.7183C125.502 18.016 125.628 17.1917 125.628 16.2452C125.628 15.2987 125.502 14.4781 125.25 13.7835C125.006 13.0889 124.643 12.5508 124.162 12.1691C123.689 11.7875 123.105 11.5966 122.411 11.5966C121.724 11.5966 121.14 11.7836 120.659 12.1577C120.178 12.5317 119.808 13.066 119.548 13.7606C119.296 14.4552 119.17 15.2834 119.17 16.2452Z" fill="#333333"/>
<path d="M98.5477 31.6333C97.8759 31.6333 97.2424 31.5799 96.647 31.4731C96.0516 31.3738 95.5402 31.2402 95.1128 31.0723L96.3493 27.0077C96.8989 27.1909 97.3951 27.2978 97.8378 27.3283C98.2881 27.3588 98.6736 27.2863 98.9942 27.1108C99.3224 26.9428 99.5743 26.6413 99.7499 26.2062L99.9674 25.6796L93.7159 7.45178H99.5781L102.818 20.0005H103.002L106.288 7.45178H112.184L105.555 26.7215C105.234 27.6832 104.78 28.5305 104.192 29.2633C103.612 30.0037 102.86 30.5838 101.937 31.0036C101.021 31.4234 99.8911 31.6333 98.5477 31.6333Z" fill="#333333"/>
<path d="M92.9123 7.45192V11.5738H81.8177V7.45192H92.9123ZM84.1419 3.23847H89.7408V19.5084C89.7408 19.8518 89.7942 20.1304 89.9011 20.3442C90.0156 20.5503 90.1797 20.6991 90.3934 20.7907C90.6072 20.8747 90.8629 20.9167 91.1606 20.9167C91.3743 20.9167 91.5995 20.8976 91.8361 20.8594C92.0803 20.8136 92.2635 20.7754 92.3857 20.7449L93.2329 24.7866C92.9658 24.863 92.5879 24.9584 92.0994 25.0729C91.6185 25.1874 91.0422 25.2599 90.3705 25.2904C89.0576 25.3515 87.9318 25.1988 86.9929 24.8324C86.0617 24.4584 85.348 23.8783 84.8518 23.0921C84.3633 22.3059 84.1267 21.3174 84.1419 20.1266V3.23847Z" fill="#333333"/>
<path d="M71.8774 25.3705C70.0302 25.3705 68.4426 24.9927 67.1144 24.237C65.7939 23.4737 64.7749 22.4127 64.0574 21.054C63.3475 19.6877 62.9925 18.1038 62.9925 16.3024C62.9925 14.4934 63.3475 12.9095 64.0574 11.5508C64.7749 10.1845 65.7939 9.12351 67.1144 8.36784C68.4426 7.60453 70.0302 7.22288 71.8774 7.22288C73.7246 7.22288 75.3085 7.60453 76.629 8.36784C77.9572 9.12351 78.9762 10.1845 79.6861 11.5508C80.4036 12.9095 80.7623 14.4934 80.7623 16.3024C80.7623 18.1038 80.4036 19.6877 79.6861 21.054C78.9762 22.4127 77.9572 23.4737 76.629 24.237C75.3085 24.9927 73.7246 25.3705 71.8774 25.3705ZM71.9118 21.1456C72.5835 21.1456 73.1522 20.9395 73.6178 20.5273C74.0834 20.1151 74.4383 19.5426 74.6826 18.8099C74.9345 18.0771 75.0604 17.2298 75.0604 16.2681C75.0604 15.291 74.9345 14.4361 74.6826 13.7034C74.4383 12.9706 74.0834 12.3981 73.6178 11.9859C73.1522 11.5737 72.5835 11.3676 71.9118 11.3676C71.2172 11.3676 70.6294 11.5737 70.1485 11.9859C69.6753 12.3981 69.3127 12.9706 69.0608 13.7034C68.8166 14.4361 68.6944 15.291 68.6944 16.2681C68.6944 17.2298 68.8166 18.0771 69.0608 18.8099C69.3127 19.5426 69.6753 20.1151 70.1485 20.5273C70.6294 20.9395 71.2172 21.1456 71.9118 21.1456Z" fill="#333333"/>
<path d="M61.6451 7.45192V11.5738H50.5505V7.45192H61.6451ZM52.8747 3.23847H58.4736V19.5084C58.4736 19.8518 58.527 20.1304 58.6339 20.3442C58.7484 20.5503 58.9125 20.6991 59.1262 20.7907C59.34 20.8747 59.5957 20.9167 59.8934 20.9167C60.1071 20.9167 60.3323 20.8976 60.5689 20.8594C60.8131 20.8136 60.9963 20.7754 61.1185 20.7449L61.9657 24.7866C61.6986 24.863 61.3207 24.9584 60.8322 25.0729C60.3513 25.1874 59.775 25.2599 59.1033 25.2904C57.7904 25.3515 56.6646 25.1988 55.7257 24.8324C54.7945 24.4584 54.0808 23.8783 53.5846 23.0921C53.0961 22.3059 52.8595 21.3174 52.8747 20.1266V3.23847Z" fill="#333333"/>
<path d="M40.6102 25.3705C38.763 25.3705 37.1753 24.9927 35.8471 24.237C34.5266 23.4737 33.5076 22.4127 32.7901 21.054C32.0802 19.6877 31.7253 18.1038 31.7253 16.3024C31.7253 14.4934 32.0802 12.9095 32.7901 11.5508C33.5076 10.1845 34.5266 9.12351 35.8471 8.36784C37.1753 7.60453 38.763 7.22288 40.6102 7.22288C42.4574 7.22288 44.0412 7.60453 45.3618 8.36784C46.6899 9.12351 47.7089 10.1845 48.4188 11.5508C49.1363 12.9095 49.4951 14.4934 49.4951 16.3024C49.4951 18.1038 49.1363 19.6877 48.4188 21.054C47.7089 22.4127 46.6899 23.4737 45.3618 24.237C44.0412 24.9927 42.4574 25.3705 40.6102 25.3705ZM40.6445 21.1456C41.3162 21.1456 41.8849 20.9395 42.3505 20.5273C42.8161 20.1151 43.1711 19.5426 43.4153 18.8099C43.6672 18.0771 43.7932 17.2298 43.7932 16.2681C43.7932 15.291 43.6672 14.4361 43.4153 13.7034C43.1711 12.9706 42.8161 12.3981 42.3505 11.9859C41.8849 11.5737 41.3162 11.3676 40.6445 11.3676C39.9499 11.3676 39.3622 11.5737 38.8813 11.9859C38.408 12.3981 38.0455 12.9706 37.7936 13.7034C37.5493 14.4361 37.4272 15.291 37.4272 16.2681C37.4272 17.2298 37.5493 18.0771 37.7936 18.8099C38.0455 19.5426 38.408 20.1151 38.8813 20.5273C39.3622 20.9395 39.9499 21.1456 40.6445 21.1456Z" fill="#333333"/>
<path d="M20.3881 25.0385V7.45194H25.8266V10.6578H26.0098C26.3304 9.4976 26.8533 8.63506 27.5784 8.07021C28.3036 7.49773 29.147 7.21149 30.1088 7.21149C30.3683 7.21149 30.6355 7.23058 30.9103 7.26874C31.185 7.29927 31.4408 7.34889 31.6774 7.41759V12.2837C31.4102 12.1921 31.0591 12.1196 30.624 12.0661C30.1966 12.0127 29.8149 11.986 29.4791 11.986C28.815 11.986 28.2158 12.1348 27.6815 12.4325C27.1548 12.7226 26.7388 13.1309 26.4335 13.6576C26.1358 14.1767 25.9869 14.7873 25.9869 15.4896V25.0385H20.3881Z" fill="#333333"/>
<path d="M0 25.0384V1.58959H9.68636C11.442 1.58959 12.9571 1.93308 14.2319 2.62006C15.5142 3.2994 16.5027 4.24972 17.1973 5.47101C17.8919 6.68467 18.2392 8.09678 18.2392 9.70736C18.2392 11.3256 17.8843 12.7415 17.1744 13.9552C16.4722 15.1612 15.4684 16.0962 14.1632 16.7603C12.8579 17.4244 11.3084 17.7564 9.51462 17.7564H3.53793V13.2911H8.46126C9.31616 13.2911 10.0299 13.1422 10.6023 12.8446C11.1824 12.5469 11.6213 12.1309 11.919 11.5965C12.2167 11.0546 12.3656 10.4249 12.3656 9.70736C12.3656 8.98222 12.2167 8.35631 11.919 7.82963C11.6213 7.29531 11.1824 6.88313 10.6023 6.59307C10.0222 6.30301 9.30853 6.15798 8.46126 6.15798H5.66755V25.0384H0Z" fill="#333333"/>
<path fill-rule="evenodd" clip-rule="evenodd" d="M206.818 1.20905H185.457V25.3906H206.818V1.20905ZM185.054 0.806023V25.7936H207.221V0.806023H185.054Z" fill="#4A4A4A"/>
<path d="M206.012 24.5846H208.027V26.5997H206.012V24.5846Z" fill="white"/>
<path fill-rule="evenodd" clip-rule="evenodd" d="M207.624 24.9876H206.415V26.1967H207.624V24.9876ZM206.012 24.5846V26.5997H208.027V24.5846H206.012Z" fill="#4A4A4A"/>
<path d="M206.012 0H208.027V2.01513H206.012V0Z" fill="white"/>
<path fill-rule="evenodd" clip-rule="evenodd" d="M207.624 0.403026H206.415V1.6121H207.624V0.403026ZM206.012 0V2.01513H208.027V0H206.012Z" fill="#4A4A4A"/>
<path d="M184.248 24.5846H186.263V26.5997H184.248V24.5846Z" fill="white"/>
<path fill-rule="evenodd" clip-rule="evenodd" d="M185.86 24.9876H184.651V26.1967H185.86V24.9876ZM184.248 24.5846V26.5997H186.263V24.5846H184.248Z" fill="#4A4A4A"/>
<path d="M184.248 0H186.263V2.01513H184.248V0Z" fill="white"/>
<path fill-rule="evenodd" clip-rule="evenodd" d="M185.86 0.403026H184.651V1.6121H185.86V0.403026ZM184.248 0V2.01513H186.263V0H184.248Z" fill="#4A4A4A"/>
</svg>
