<svg width="388" height="72" viewBox="0 0 388 72" fill="none" xmlns="http://www.w3.org/2000/svg">
<path d="M347.17 27.401V31.5229H336.075V27.401H347.17ZM338.4 23.1876H343.998V39.4575C343.998 39.801 344.052 40.0796 344.159 40.2933C344.273 40.4994 344.437 40.6482 344.651 40.7398C344.865 40.8238 345.121 40.8658 345.418 40.8658C345.632 40.8658 345.857 40.8467 346.094 40.8085C346.338 40.7627 346.521 40.7246 346.643 40.694L347.491 44.7357C347.223 44.8121 346.846 44.9075 346.357 45.022C345.876 45.1365 345.3 45.209 344.628 45.2395C343.315 45.3006 342.189 45.1479 341.251 44.7815C340.319 44.4075 339.606 43.8274 339.109 43.0412C338.621 42.255 338.384 41.2665 338.4 40.0757V23.1876Z" fill="#333333"/>
<path d="M334.697 32.7709L329.556 32.9083C329.502 32.5419 329.357 32.2175 329.121 31.9351C328.884 31.645 328.575 31.4198 328.193 31.2596C327.819 31.0916 327.384 31.0077 326.888 31.0077C326.239 31.0077 325.686 31.1374 325.228 31.3969C324.777 31.6565 324.556 32.0076 324.564 32.4503C324.556 32.7938 324.693 33.0915 324.976 33.3434C325.266 33.5953 325.781 33.7975 326.522 33.9502L329.911 34.5914C331.666 34.9272 332.971 35.4845 333.826 36.263C334.689 37.0416 335.124 38.0721 335.132 39.3544C335.124 40.5604 334.765 41.61 334.055 42.5031C333.353 43.3961 332.391 44.0907 331.17 44.5869C329.949 45.0754 328.552 45.3197 326.979 45.3197C324.468 45.3197 322.487 44.8044 321.037 43.774C319.594 42.7359 318.77 41.3466 318.564 39.6063L324.094 39.4689C324.216 40.1101 324.533 40.5986 325.044 40.9345C325.556 41.2703 326.209 41.4382 327.002 41.4382C327.72 41.4382 328.304 41.3047 328.754 41.0375C329.205 40.7704 329.434 40.4154 329.441 39.9727C329.434 39.5758 329.258 39.259 328.914 39.0224C328.571 38.7781 328.033 38.5873 327.3 38.4499L324.232 37.866C322.468 37.5454 321.155 36.9538 320.293 36.0913C319.43 35.2211 319.003 34.1143 319.011 32.7709C319.003 31.5954 319.316 30.5917 319.949 29.7597C320.583 28.92 321.484 28.2788 322.652 27.8361C323.819 27.3934 325.197 27.172 326.785 27.172C329.166 27.172 331.044 27.672 332.418 28.6719C333.792 29.6642 334.551 31.0306 334.697 32.7709Z" fill="#333333"/>
<path d="M308.781 45.3197C306.942 45.3197 305.354 44.9571 304.018 44.232C302.69 43.4992 301.667 42.4573 300.95 41.1062C300.24 39.7475 299.885 38.1331 299.885 36.263C299.885 34.4464 300.244 32.8587 300.961 31.5C301.679 30.1337 302.69 29.0727 303.995 28.317C305.3 27.5537 306.838 27.172 308.609 27.172C309.861 27.172 311.006 27.3667 312.044 27.756C313.082 28.1453 313.979 28.7216 314.735 29.4849C315.491 30.2482 316.078 31.1909 316.498 32.3129C316.918 33.4273 317.128 34.7059 317.128 36.1485V37.5454H301.843V34.2937H311.918C311.911 33.6983 311.769 33.1678 311.495 32.7022C311.22 32.2366 310.842 31.874 310.361 31.6145C309.888 31.3473 309.342 31.2138 308.724 31.2138C308.098 31.2138 307.537 31.355 307.041 31.6374C306.545 31.9122 306.152 32.29 305.861 32.7709C305.571 33.2441 305.419 33.7823 305.403 34.3853V37.6942C305.403 38.4117 305.545 39.0415 305.827 39.5834C306.11 40.1177 306.51 40.5337 307.029 40.8314C307.548 41.1291 308.167 41.278 308.884 41.278C309.38 41.278 309.831 41.2093 310.235 41.0719C310.64 40.9345 310.987 40.7322 311.277 40.465C311.567 40.1979 311.785 39.8696 311.93 39.4804L317.071 39.6292C316.857 40.7818 316.387 41.7856 315.662 42.6405C314.945 43.4877 314.002 44.148 312.834 44.6212C311.666 45.0869 310.315 45.3197 308.781 45.3197Z" fill="#333333"/>
<path d="M298.537 27.401V31.5229H287.443V27.401H298.537ZM289.767 23.1876H295.366V39.4575C295.366 39.801 295.419 40.0796 295.526 40.2933C295.641 40.4994 295.805 40.6482 296.019 40.7398C296.232 40.8238 296.488 40.8658 296.786 40.8658C296.999 40.8658 297.225 40.8467 297.461 40.8085C297.705 40.7627 297.889 40.7246 298.011 40.694L298.858 44.7357C298.591 44.8121 298.213 44.9075 297.724 45.022C297.244 45.1365 296.667 45.209 295.996 45.2395C294.683 45.3006 293.557 45.1479 292.618 44.7815C291.687 44.4075 290.973 43.8274 290.477 43.0412C289.988 42.255 289.752 41.2665 289.767 40.0757V23.1876Z" fill="#333333"/>
<path d="M274.419 34.9577V44.9876H268.821V27.401H274.145V30.6298H274.339C274.729 29.5535 275.393 28.7101 276.331 28.0994C277.27 27.4811 278.389 27.172 279.686 27.172C280.923 27.172 281.995 27.4506 282.904 28.0078C283.82 28.5574 284.529 29.3283 285.033 30.3206C285.545 31.3053 285.796 32.4579 285.789 33.7784V44.9876H280.19V34.8776C280.198 33.9005 279.95 33.1372 279.446 32.5877C278.95 32.0381 278.259 31.7633 277.373 31.7633C276.786 31.7633 276.267 31.893 275.816 32.1526C275.374 32.4045 275.03 32.767 274.786 33.2403C274.549 33.7135 274.427 34.286 274.419 34.9577Z" fill="#333333"/>
<path d="M257.712 45.3196C255.865 45.3196 254.277 44.9418 252.949 44.1861C251.629 43.4228 250.61 42.3618 249.892 41.0031C249.182 39.6368 248.827 38.0529 248.827 36.2515C248.827 34.4425 249.182 32.8586 249.892 31.4999C250.61 30.1336 251.629 29.0726 252.949 28.3169C254.277 27.5536 255.865 27.172 257.712 27.172C259.56 27.172 261.143 27.5536 262.464 28.3169C263.792 29.0726 264.811 30.1336 265.521 31.4999C266.238 32.8586 266.597 34.4425 266.597 36.2515C266.597 38.0529 266.238 39.6368 265.521 41.0031C264.811 42.3618 263.792 43.4228 262.464 44.1861C261.143 44.9418 259.56 45.3196 257.712 45.3196ZM257.747 41.0947C258.418 41.0947 258.987 40.8886 259.453 40.4764C259.918 40.0642 260.273 39.4918 260.517 38.759C260.769 38.0262 260.895 37.1789 260.895 36.2172C260.895 35.2401 260.769 34.3852 260.517 33.6525C260.273 32.9197 259.918 32.3472 259.453 31.935C258.987 31.5228 258.418 31.3167 257.747 31.3167C257.052 31.3167 256.464 31.5228 255.983 31.935C255.51 32.3472 255.148 32.9197 254.896 33.6525C254.651 34.3852 254.529 35.2401 254.529 36.2172C254.529 37.1789 254.651 38.0262 254.896 38.759C255.148 39.4918 255.51 40.0642 255.983 40.4764C256.464 40.8886 257.052 41.0947 257.747 41.0947Z" fill="#333333"/>
<path d="M246.905 30.0342H241.18C241.104 29.4465 240.947 28.916 240.711 28.4427C240.474 27.9695 240.161 27.5649 239.772 27.2291C239.382 26.8932 238.921 26.6375 238.386 26.462C237.86 26.2788 237.276 26.1872 236.634 26.1872C235.497 26.1872 234.516 26.4658 233.692 27.023C232.875 27.5802 232.245 28.3855 231.803 29.4389C231.368 30.4922 231.15 31.767 231.15 33.263C231.15 34.8202 231.371 36.1254 231.814 37.1788C232.265 38.2245 232.894 39.0145 233.703 39.5489C234.52 40.0755 235.486 40.3389 236.6 40.3389C237.226 40.3389 237.795 40.2587 238.306 40.0984C238.825 39.9382 239.279 39.7053 239.669 39.4C240.066 39.0871 240.39 38.7092 240.642 38.2665C240.901 37.8162 241.081 37.3086 241.18 36.7437L246.905 36.7781C246.806 37.8162 246.504 38.839 246 39.8466C245.504 40.8541 244.821 41.7739 243.951 42.6059C243.081 43.4303 242.02 44.0867 240.768 44.5752C239.524 45.0638 238.096 45.308 236.486 45.308C234.364 45.308 232.463 44.8424 230.784 43.9112C229.112 42.9723 227.792 41.606 226.822 39.8122C225.853 38.0184 225.368 35.8354 225.368 33.263C225.368 30.6831 225.86 28.4962 226.845 26.7024C227.83 24.9086 229.162 23.5461 230.841 22.6149C232.52 21.6837 234.402 21.2181 236.486 21.2181C237.905 21.2181 239.218 21.4165 240.424 21.8134C241.63 22.2027 242.691 22.7752 243.607 23.5309C244.523 24.2789 245.267 25.1987 245.84 26.2902C246.412 27.3818 246.767 28.6298 246.905 30.0342Z" fill="#333333"/>
<path d="M210.17 51.9998C208.499 51.9998 207.067 51.767 205.877 51.3014C204.686 50.8358 203.751 50.1984 203.071 49.3893C202.392 48.5802 201.984 47.6642 201.846 46.6414L207.147 46.3437C207.247 46.7025 207.43 47.0154 207.697 47.2826C207.972 47.5497 208.327 47.7558 208.762 47.9009C209.205 48.0459 209.724 48.1184 210.319 48.1184C211.258 48.1184 212.033 47.8894 212.643 47.4314C213.262 46.9811 213.571 46.1911 213.571 45.0614V41.97H213.376C213.155 42.5119 212.819 42.9966 212.368 43.4241C211.918 43.8515 211.357 44.1874 210.685 44.4316C210.021 44.6759 209.258 44.798 208.395 44.798C207.113 44.798 205.938 44.5003 204.869 43.905C203.808 43.3019 202.957 42.3707 202.316 41.1112C201.682 39.8442 201.365 38.2145 201.365 36.2223C201.365 34.169 201.694 32.4782 202.35 31.1501C203.007 29.8143 203.865 28.8258 204.926 28.1846C205.995 27.5435 207.144 27.2229 208.373 27.2229C209.296 27.2229 210.086 27.3832 210.743 27.7038C211.407 28.0167 211.952 28.4213 212.38 28.9174C212.807 29.4136 213.132 29.9288 213.353 30.4631H213.513V27.4519H219.089V45.1072C219.089 46.5956 218.715 47.8512 217.967 48.8741C217.219 49.8969 216.174 50.6717 214.83 51.1983C213.487 51.7327 211.933 51.9998 210.17 51.9998ZM210.342 40.722C211.021 40.722 211.601 40.5426 212.082 40.1838C212.563 39.8251 212.933 39.3098 213.193 38.6381C213.452 37.9664 213.582 37.1611 213.582 36.2223C213.582 35.2681 213.452 34.4476 213.193 33.7606C212.941 33.066 212.571 32.5317 212.082 32.1577C211.601 31.7836 211.021 31.5966 210.342 31.5966C209.647 31.5966 209.06 31.7875 208.579 32.1691C208.098 32.5508 207.731 33.0889 207.479 33.7835C207.235 34.4705 207.113 35.2834 207.113 36.2223C207.113 37.1611 207.239 37.9664 207.491 38.6381C207.743 39.3098 208.105 39.8251 208.579 40.1838C209.06 40.5426 209.647 40.722 210.342 40.722Z" fill="#333333"/>
<path d="M187.781 35.0086V45.0385H182.182V27.4519H187.507V30.6807H187.701C188.09 29.6044 188.755 28.7609 189.693 28.1503C190.632 27.532 191.751 27.2229 193.048 27.2229C194.285 27.2229 195.357 27.5015 196.265 28.0587C197.181 28.6083 197.891 29.3792 198.395 30.3715C198.907 31.3562 199.158 32.5088 199.151 33.8293V45.0385H193.552V34.9285C193.56 33.9514 193.311 33.1881 192.808 32.6385C192.312 32.089 191.621 31.8142 190.735 31.8142C190.148 31.8142 189.629 31.9439 189.178 32.2035C188.735 32.4553 188.392 32.8179 188.148 33.2912C187.911 33.7644 187.789 34.3369 187.781 35.0086Z" fill="#333333"/>
<path d="M173.665 45.0384V27.4518H179.264V45.0384H173.665ZM176.47 25.4024C175.684 25.4024 175.008 25.1428 174.443 24.6238C173.878 24.0971 173.596 23.4636 173.596 22.7231C173.596 21.9904 173.878 21.3645 174.443 20.8454C175.008 20.3187 175.684 20.0554 176.47 20.0554C177.264 20.0554 177.939 20.3187 178.496 20.8454C179.061 21.3645 179.344 21.9904 179.344 22.7231C179.344 23.4636 179.061 24.0971 178.496 24.6238C177.939 25.1428 177.264 25.4024 176.47 25.4024Z" fill="#333333"/>
<path d="M153.686 51.6334V27.4519H159.228V30.4631H159.399C159.628 29.9288 159.953 29.4136 160.373 28.9174C160.8 28.4213 161.342 28.0167 161.998 27.7038C162.662 27.3832 163.456 27.2229 164.38 27.2229C165.601 27.2229 166.742 27.5435 167.803 28.1846C168.872 28.8258 169.734 29.8143 170.391 31.1501C171.047 32.4859 171.376 34.1881 171.376 36.2566C171.376 38.2488 171.059 39.9167 170.425 41.2601C169.799 42.6035 168.952 43.6111 167.883 44.2828C166.822 44.9545 165.643 45.2904 164.346 45.2904C163.46 45.2904 162.693 45.1453 162.044 44.8553C161.395 44.5652 160.85 44.1836 160.407 43.7103C159.972 43.2371 159.636 42.7295 159.399 42.1875H159.285V51.6334H153.686ZM159.17 36.2452C159.17 37.1917 159.296 38.016 159.548 38.7183C159.808 39.4205 160.178 39.9663 160.659 40.3556C161.147 40.7372 161.731 40.9281 162.411 40.9281C163.098 40.9281 163.681 40.7372 164.162 40.3556C164.643 39.9663 165.006 39.4205 165.25 38.7183C165.502 38.016 165.628 37.1917 165.628 36.2452C165.628 35.2987 165.502 34.4781 165.25 33.7835C165.006 33.0889 164.643 32.5508 164.162 32.1691C163.689 31.7875 163.105 31.5966 162.411 31.5966C161.724 31.5966 161.14 31.7836 160.659 32.1577C160.178 32.5317 159.808 33.066 159.548 33.7606C159.296 34.4552 159.17 35.2834 159.17 36.2452Z" fill="#333333"/>
<path d="M138.548 51.6333C137.876 51.6333 137.242 51.5799 136.647 51.4731C136.052 51.3738 135.54 51.2402 135.113 51.0723L136.349 47.0077C136.899 47.1909 137.395 47.2978 137.838 47.3283C138.288 47.3588 138.674 47.2863 138.994 47.1108C139.322 46.9428 139.574 46.6413 139.75 46.2062L139.967 45.6796L133.716 27.4518H139.578L142.818 40.0005H143.002L146.288 27.4518H152.184L145.555 46.7215C145.234 47.6832 144.78 48.5305 144.192 49.2633C143.612 50.0037 142.86 50.5838 141.937 51.0036C141.021 51.4234 139.891 51.6333 138.548 51.6333Z" fill="#333333"/>
<path d="M132.912 27.4519V31.5738H121.818V27.4519H132.912ZM124.142 23.2385H129.741V39.5084C129.741 39.8518 129.794 40.1304 129.901 40.3442C130.016 40.5503 130.18 40.6991 130.393 40.7907C130.607 40.8747 130.863 40.9167 131.161 40.9167C131.374 40.9167 131.599 40.8976 131.836 40.8594C132.08 40.8136 132.264 40.7754 132.386 40.7449L133.233 44.7866C132.966 44.863 132.588 44.9584 132.099 45.0729C131.619 45.1874 131.042 45.2599 130.371 45.2904C129.058 45.3515 127.932 45.1988 126.993 44.8324C126.062 44.4584 125.348 43.8783 124.852 43.0921C124.363 42.3059 124.127 41.3174 124.142 40.1266V23.2385Z" fill="#333333"/>
<path d="M111.877 45.3705C110.03 45.3705 108.443 44.9927 107.114 44.237C105.794 43.4737 104.775 42.4127 104.057 41.054C103.347 39.6877 102.993 38.1038 102.993 36.3024C102.993 34.4934 103.347 32.9095 104.057 31.5508C104.775 30.1845 105.794 29.1235 107.114 28.3678C108.443 27.6045 110.03 27.2229 111.877 27.2229C113.725 27.2229 115.308 27.6045 116.629 28.3678C117.957 29.1235 118.976 30.1845 119.686 31.5508C120.404 32.9095 120.762 34.4934 120.762 36.3024C120.762 38.1038 120.404 39.6877 119.686 41.054C118.976 42.4127 117.957 43.4737 116.629 44.237C115.308 44.9927 113.725 45.3705 111.877 45.3705ZM111.912 41.1456C112.583 41.1456 113.152 40.9395 113.618 40.5273C114.083 40.1151 114.438 39.5426 114.683 38.8099C114.934 38.0771 115.06 37.2298 115.06 36.2681C115.06 35.291 114.934 34.4361 114.683 33.7034C114.438 32.9706 114.083 32.3981 113.618 31.9859C113.152 31.5737 112.583 31.3676 111.912 31.3676C111.217 31.3676 110.629 31.5737 110.149 31.9859C109.675 32.3981 109.313 32.9706 109.061 33.7034C108.817 34.4361 108.694 35.291 108.694 36.2681C108.694 37.2298 108.817 38.0771 109.061 38.8099C109.313 39.5426 109.675 40.1151 110.149 40.5273C110.629 40.9395 111.217 41.1456 111.912 41.1456Z" fill="#333333"/>
<path d="M101.645 27.4519V31.5738H90.5505V27.4519H101.645ZM92.8747 23.2385H98.4736V39.5084C98.4736 39.8518 98.527 40.1304 98.6339 40.3442C98.7484 40.5503 98.9125 40.6991 99.1262 40.7907C99.34 40.8747 99.5957 40.9167 99.8934 40.9167C100.107 40.9167 100.332 40.8976 100.569 40.8594C100.813 40.8136 100.996 40.7754 101.118 40.7449L101.966 44.7866C101.699 44.863 101.321 44.9584 100.832 45.0729C100.351 45.1874 99.775 45.2599 99.1033 45.2904C97.7904 45.3515 96.6646 45.1988 95.7257 44.8324C94.7945 44.4584 94.0808 43.8783 93.5846 43.0921C93.0961 42.3059 92.8595 41.3174 92.8747 40.1266V23.2385Z" fill="#333333"/>
<path d="M80.6102 45.3705C78.763 45.3705 77.1753 44.9927 75.8471 44.237C74.5266 43.4737 73.5076 42.4127 72.7901 41.054C72.0802 39.6877 71.7253 38.1038 71.7253 36.3024C71.7253 34.4934 72.0802 32.9095 72.7901 31.5508C73.5076 30.1845 74.5266 29.1235 75.8471 28.3678C77.1753 27.6045 78.763 27.2229 80.6102 27.2229C82.4574 27.2229 84.0412 27.6045 85.3618 28.3678C86.6899 29.1235 87.7089 30.1845 88.4188 31.5508C89.1363 32.9095 89.4951 34.4934 89.4951 36.3024C89.4951 38.1038 89.1363 39.6877 88.4188 41.054C87.7089 42.4127 86.6899 43.4737 85.3618 44.237C84.0412 44.9927 82.4574 45.3705 80.6102 45.3705ZM80.6445 41.1456C81.3162 41.1456 81.8849 40.9395 82.3505 40.5273C82.8161 40.1151 83.1711 39.5426 83.4153 38.8099C83.6672 38.0771 83.7932 37.2298 83.7932 36.2681C83.7932 35.291 83.6672 34.4361 83.4153 33.7034C83.1711 32.9706 82.8161 32.3981 82.3505 31.9859C81.8849 31.5737 81.3162 31.3676 80.6445 31.3676C79.9499 31.3676 79.3622 31.5737 78.8813 31.9859C78.408 32.3981 78.0455 32.9706 77.7936 33.7034C77.5493 34.4361 77.4272 35.291 77.4272 36.2681C77.4272 37.2298 77.5493 38.0771 77.7936 38.8099C78.0455 39.5426 78.408 40.1151 78.8813 40.5273C79.3622 40.9395 79.9499 41.1456 80.6445 41.1456Z" fill="#333333"/>
<path d="M60.3881 45.0385V27.4519H65.8266V30.6578H66.0098C66.3304 29.4976 66.8533 28.6351 67.5784 28.0702C68.3036 27.4977 69.147 27.2115 70.1088 27.2115C70.3683 27.2115 70.6355 27.2306 70.9103 27.2687C71.185 27.2993 71.4408 27.3489 71.6774 27.4176V32.2837C71.4102 32.1921 71.0591 32.1196 70.624 32.0661C70.1966 32.0127 69.8149 31.986 69.4791 31.986C68.815 31.986 68.2158 32.1348 67.6815 32.4325C67.1548 32.7226 66.7388 33.1309 66.4335 33.6576C66.1358 34.1767 65.9869 34.7873 65.9869 35.4896V45.0385H60.3881Z" fill="#333333"/>
<path d="M40 45.0384V21.5896H49.6864C51.442 21.5896 52.9571 21.9331 54.2319 22.6201C55.5142 23.2994 56.5027 24.2497 57.1973 25.471C57.8919 26.6847 58.2392 28.0968 58.2392 29.7074C58.2392 31.3256 57.8843 32.7415 57.1744 33.9552C56.4722 35.1612 55.4684 36.0962 54.1632 36.7603C52.8579 37.4244 51.3084 37.7564 49.5146 37.7564H43.5379V33.2911H48.4613C49.3162 33.2911 50.0299 33.1422 50.6023 32.8446C51.1824 32.5469 51.6213 32.1309 51.919 31.5965C52.2167 31.0546 52.3656 30.4249 52.3656 29.7074C52.3656 28.9822 52.2167 28.3563 51.919 27.8296C51.6213 27.2953 51.1824 26.8831 50.6023 26.5931C50.0222 26.303 49.3085 26.158 48.4613 26.158H45.6676V45.0384H40Z" fill="#333333"/>
<path fill-rule="evenodd" clip-rule="evenodd" d="M246.818 21.209H225.457V45.3906H246.818V21.209ZM225.054 20.806V45.7936H247.221V20.806H225.054Z" fill="#4A4A4A"/>
<path d="M246.012 44.5846H248.027V46.5997H246.012V44.5846Z" fill="white"/>
<path fill-rule="evenodd" clip-rule="evenodd" d="M247.624 44.9876H246.415V46.1967H247.624V44.9876ZM246.012 44.5846V46.5997H248.027V44.5846H246.012Z" fill="#4A4A4A"/>
<path d="M246.012 20H248.027V22.0151H246.012V20Z" fill="white"/>
<path fill-rule="evenodd" clip-rule="evenodd" d="M247.624 20.403H246.415V21.6121H247.624V20.403ZM246.012 20V22.0151H248.027V20H246.012Z" fill="#4A4A4A"/>
<path d="M224.248 44.5846H226.263V46.5997H224.248V44.5846Z" fill="white"/>
<path fill-rule="evenodd" clip-rule="evenodd" d="M225.86 44.9876H224.651V46.1967H225.86V44.9876ZM224.248 44.5846V46.5997H226.263V44.5846H224.248Z" fill="#4A4A4A"/>
<path d="M224.248 20H226.263V22.0151H224.248V20Z" fill="white"/>
<path fill-rule="evenodd" clip-rule="evenodd" d="M225.86 20.403H224.651V21.6121H225.86V20.403ZM224.248 20V22.0151H226.263V20H224.248Z" fill="#4A4A4A"/>
</svg>
