<svg width="143" height="20" viewBox="0 0 143 20" fill="none" xmlns="http://www.w3.org/2000/svg">
<path d="M78.8063 20C78.5123 20 78.2364 19.9764 77.9787 19.9292C77.7247 19.8857 77.5142 19.8294 77.3472 19.7604L77.8699 18.0291C78.1421 18.1126 78.3871 18.158 78.6048 18.1652C78.8262 18.1725 79.0168 18.1217 79.1765 18.0128C79.3398 17.9039 79.4723 17.7188 79.5739 17.4575L79.7101 17.1036L76.7102 8.50146H79.1493L80.8806 14.6427H80.9677L82.7153 8.50146H85.1708L81.9205 17.7678C81.7644 18.2179 81.5521 18.6099 81.2835 18.9438C81.0185 19.2813 80.6828 19.5408 80.2763 19.7223C79.8698 19.9074 79.3798 20 78.8063 20Z" fill="#333333"/>
<path d="M68.094 16.8639V5.71387H70.4133V9.90604H70.4841C70.5857 9.681 70.7327 9.45234 70.9251 9.22005C71.1211 8.98412 71.3751 8.78813 71.6873 8.63205C72.0031 8.47235 72.395 8.3925 72.8633 8.3925C73.473 8.3925 74.0356 8.5522 74.551 8.87161C75.0664 9.18738 75.4784 9.66467 75.7869 10.3035C76.0954 10.9387 76.2497 11.7353 76.2497 12.6936C76.2497 13.6264 76.099 14.414 75.7978 15.0564C75.5002 15.6952 75.0936 16.1798 74.5782 16.5101C74.0665 16.8367 73.493 17.0001 72.8578 17.0001C72.4078 17.0001 72.0248 16.9257 71.7091 16.7768C71.3969 16.628 71.141 16.4411 70.9414 16.2161C70.7418 15.9874 70.5893 15.7569 70.4841 15.5246H70.3806V16.8639H68.094ZM70.3643 12.6827C70.3643 13.1799 70.4333 13.6137 70.5712 13.9839C70.7091 14.3541 70.9087 14.6426 71.1701 14.8495C71.4314 15.0528 71.749 15.1544 72.1228 15.1544C72.5003 15.1544 72.8197 15.051 73.081 14.8441C73.3424 14.6336 73.5402 14.3432 73.6745 13.973C73.8124 13.5991 73.8814 13.169 73.8814 12.6827C73.8814 12.1999 73.8142 11.7753 73.6799 11.4087C73.5456 11.0421 73.3478 10.7554 73.0865 10.5485C72.8252 10.3416 72.5039 10.2381 72.1228 10.2381C71.7454 10.2381 71.426 10.338 71.1646 10.5376C70.9069 10.7372 70.7091 11.0203 70.5712 11.3869C70.4333 11.7535 70.3643 12.1854 70.3643 12.6827Z" fill="#333333"/>
<path d="M58.1436 17.0001C57.5084 17.0001 56.9331 16.8367 56.4177 16.5101C55.9059 16.1798 55.4994 15.6952 55.1981 15.0564C54.9005 14.414 54.7517 13.6264 54.7517 12.6936C54.7517 11.7353 54.906 10.9387 55.2145 10.3035C55.523 9.66467 55.9331 9.18738 56.4449 8.87161C56.9603 8.5522 57.5247 8.3925 58.1381 8.3925C58.6063 8.3925 58.9965 8.47235 59.3087 8.63205C59.6244 8.78813 59.8785 8.98412 60.0709 9.22005C60.2669 9.45234 60.4157 9.681 60.5173 9.90604H60.5881V5.71387H62.9019V16.8639H60.6153V15.5246H60.5173C60.4084 15.7569 60.2542 15.9874 60.0545 16.2161C59.8585 16.4411 59.6026 16.628 59.2869 16.7768C58.9747 16.9257 58.5936 17.0001 58.1436 17.0001ZM58.8785 15.1544C59.2524 15.1544 59.5682 15.0528 59.8259 14.8495C60.0872 14.6426 60.2868 14.3541 60.4247 13.9839C60.5663 13.6137 60.6371 13.1799 60.6371 12.6827C60.6371 12.1854 60.5681 11.7535 60.4302 11.3869C60.2923 11.0203 60.0926 10.7372 59.8313 10.5376C59.57 10.338 59.2524 10.2381 58.8785 10.2381C58.4974 10.2381 58.1762 10.3416 57.9149 10.5485C57.6536 10.7554 57.4557 11.0421 57.3215 11.4087C57.1872 11.7753 57.12 12.1999 57.12 12.6827C57.12 13.169 57.1872 13.5991 57.3215 13.973C57.4594 14.3432 57.6572 14.6336 57.9149 14.8441C58.1762 15.051 58.4974 15.1544 58.8785 15.1544Z" fill="#333333"/>
<path d="M49.8635 17.0274C49.0032 17.0274 48.2628 16.8531 47.6422 16.5047C47.0251 16.1526 46.5497 15.6554 46.2157 15.0129C45.8818 14.3669 45.7148 13.6028 45.7148 12.7209C45.7148 11.8606 45.8818 11.1057 46.2157 10.456C46.5497 9.8063 47.0197 9.29997 47.6258 8.93701C48.2356 8.57406 48.9506 8.39258 49.7709 8.39258C50.3226 8.39258 50.8362 8.4815 51.3117 8.65935C51.7908 8.83357 52.2082 9.09672 52.5639 9.44879C52.9232 9.80086 53.2027 10.2437 53.4023 10.7772C53.6019 11.3071 53.7017 11.9278 53.7017 12.6392V13.2762H46.6404V11.8389H51.5185C51.5185 11.5049 51.446 11.2091 51.3008 10.9514C51.1556 10.6937 50.9541 10.4923 50.6964 10.3471C50.4424 10.1983 50.1466 10.1239 49.809 10.1239C49.4569 10.1239 49.1448 10.2056 48.8726 10.3689C48.604 10.5286 48.3935 10.7445 48.241 11.0168C48.0886 11.2854 48.0106 11.5848 48.0069 11.9151V13.2816C48.0069 13.6954 48.0831 14.0529 48.2356 14.3542C48.3917 14.6554 48.6113 14.8877 48.8944 15.051C49.1775 15.2144 49.5132 15.296 49.9016 15.296C50.1593 15.296 50.3952 15.2597 50.6093 15.1872C50.8235 15.1146 51.0068 15.0057 51.1592 14.8605C51.3117 14.7153 51.4278 14.5375 51.5077 14.3269L53.6527 14.4685C53.5439 14.9839 53.3206 15.434 52.9831 15.8187C52.6492 16.1998 52.2172 16.4974 51.6873 16.7116C51.161 16.9221 50.5531 17.0274 49.8635 17.0274Z" fill="#333333"/>
<path d="M40.3217 16.8642V8.50161H42.5702V9.9607H42.6573C42.8097 9.44167 43.0656 9.04968 43.4249 8.78472C43.7843 8.51613 44.1981 8.38184 44.6663 8.38184C44.7824 8.38184 44.9076 8.38909 45.0419 8.40361C45.1762 8.41813 45.2942 8.43809 45.3958 8.4635V10.5215C45.2869 10.4888 45.1363 10.4598 44.9439 10.4344C44.7516 10.409 44.5755 10.3963 44.4158 10.3963C44.0746 10.3963 43.7698 10.4707 43.5012 10.6195C43.2362 10.7647 43.0257 10.9679 42.8696 11.2292C42.7172 11.4906 42.641 11.7918 42.641 12.133V16.8642H40.3217Z" fill="#333333"/>
<path d="M35.1227 17.0274C34.2625 17.0274 33.5221 16.8531 32.9014 16.5047C32.2844 16.1526 31.8089 15.6554 31.475 15.0129C31.1411 14.3669 30.9741 13.6028 30.9741 12.7209C30.9741 11.8606 31.1411 11.1057 31.475 10.456C31.8089 9.8063 32.279 9.29997 32.8851 8.93701C33.4949 8.57406 34.2099 8.39258 35.0302 8.39258C35.5819 8.39258 36.0955 8.4815 36.5709 8.65935C37.05 8.83357 37.4674 9.09672 37.8231 9.44879C38.1825 9.80086 38.462 10.2437 38.6616 10.7772C38.8612 11.3071 38.961 11.9278 38.961 12.6392V13.2762H31.8997V11.8389H36.7778C36.7778 11.5049 36.7052 11.2091 36.5601 10.9514C36.4149 10.6937 36.2134 10.4923 35.9557 10.3471C35.7017 10.1983 35.4058 10.1239 35.0683 10.1239C34.7162 10.1239 34.4041 10.2056 34.1319 10.3689C33.8633 10.5286 33.6528 10.7445 33.5003 11.0168C33.3479 11.2854 33.2698 11.5848 33.2662 11.9151V13.2816C33.2662 13.6954 33.3424 14.0529 33.4949 14.3542C33.6509 14.6554 33.8705 14.8877 34.1536 15.051C34.4367 15.2144 34.7725 15.296 35.1608 15.296C35.4185 15.296 35.6545 15.2597 35.8686 15.1872C36.0828 15.1146 36.2661 15.0057 36.4185 14.8605C36.5709 14.7153 36.6871 14.5375 36.7669 14.3269L38.912 14.4685C38.8031 14.9839 38.5799 15.434 38.2424 15.8187C37.9084 16.1998 37.4765 16.4974 36.9466 16.7116C36.4203 16.9221 35.8124 17.0274 35.1227 17.0274Z" fill="#333333"/>
<path d="M20.2839 16.864L18.0082 8.50146H20.3547L21.6505 14.1201H21.7267L23.0769 8.50146H25.3799L26.7518 14.0874H26.8226L28.0966 8.50146H30.4377L28.1674 16.864H25.712L24.2747 11.6048H24.1712L22.7339 16.864H20.2839Z" fill="#333333"/>
<path d="M13.3731 17.0274C12.5275 17.0274 11.7961 16.8477 11.1791 16.4884C10.5657 16.1254 10.092 15.6209 9.75809 14.9748C9.42416 14.3251 9.2572 13.572 9.2572 12.7154C9.2572 11.8516 9.42416 11.0966 9.75809 10.4506C10.092 9.80086 10.5657 9.29634 11.1791 8.93701C11.7961 8.57406 12.5275 8.39258 13.3731 8.39258C14.2188 8.39258 14.9484 8.57406 15.5618 8.93701C16.1788 9.29634 16.6543 9.80086 16.9882 10.4506C17.3221 11.0966 17.4891 11.8516 17.4891 12.7154C17.4891 13.572 17.3221 14.3251 16.9882 14.9748C16.6543 15.6209 16.1788 16.1254 15.5618 16.4884C14.9484 16.8477 14.2188 17.0274 13.3731 17.0274ZM13.384 15.2307C13.7688 15.2307 14.09 15.1218 14.3477 14.9041C14.6054 14.6826 14.7996 14.3814 14.9302 14.0003C15.0645 13.6192 15.1317 13.1854 15.1317 12.6991C15.1317 12.2127 15.0645 11.779 14.9302 11.3979C14.7996 11.0168 14.6054 10.7155 14.3477 10.4941C14.09 10.2727 13.7688 10.162 13.384 10.162C12.9957 10.162 12.669 10.2727 12.4041 10.4941C12.1427 10.7155 11.9449 11.0168 11.8106 11.3979C11.6799 11.779 11.6146 12.2127 11.6146 12.6991C11.6146 13.1854 11.6799 13.6192 11.8106 14.0003C11.9449 14.3814 12.1427 14.6826 12.4041 14.9041C12.669 15.1218 12.9957 15.2307 13.384 15.2307Z" fill="#333333"/>
<path d="M0 16.8639V5.71387H4.39906C5.24475 5.71387 5.96522 5.87538 6.56047 6.19842C7.15572 6.51782 7.60942 6.96244 7.92157 7.53229C8.23734 8.0985 8.39523 8.75183 8.39523 9.49226C8.39523 10.2327 8.23553 10.886 7.91612 11.4522C7.59672 12.0185 7.13395 12.4594 6.52781 12.7752C5.92529 13.091 5.19575 13.2489 4.33917 13.2489H1.53531V11.3597H3.95806C4.41176 11.3597 4.78561 11.2816 5.0796 11.1256C5.37723 10.9659 5.59863 10.7463 5.74382 10.4668C5.89263 10.1837 5.96704 9.85885 5.96704 9.49226C5.96704 9.12205 5.89263 8.79901 5.74382 8.52316C5.59863 8.24369 5.37723 8.02773 5.0796 7.87528C4.78198 7.71921 4.4045 7.64118 3.94717 7.64118H2.35741V16.8639H0Z" fill="#333333"/>
<path d="M109.341 6.58284H104.217C104.167 6.58182 104.117 6.59086 104.071 6.60942C104.025 6.62798 103.982 6.65569 103.947 6.69088C103.906 6.73539 103.874 6.7877 103.853 6.84475C103.832 6.90179 103.823 6.96244 103.826 7.02312V13.5462C103.812 14.2113 103.945 14.8713 104.217 15.4785C104.488 16.0857 104.891 16.625 105.395 17.0576C106.371 17.8933 107.618 18.3437 108.901 18.3244H109.33C110.037 18.3189 110.734 18.1598 111.374 17.8581C112.013 17.5564 112.579 17.1192 113.033 16.5768C114.027 15.4117 114.565 13.925 114.546 12.3928C114.568 10.9096 114.049 9.46937 113.087 8.34124C112.625 7.79618 112.052 7.35704 111.405 7.05364C110.759 6.75024 110.055 6.58967 109.341 6.58284V6.58284ZM110.959 14.7968C110.755 15.0708 110.487 15.2901 110.177 15.4352C109.868 15.5804 109.528 15.6468 109.187 15.6287H108.955C108.353 15.6147 107.777 15.3792 107.337 14.967L107.324 14.9535C107.138 14.7709 106.994 14.5505 106.901 14.3072C106.808 14.064 106.768 13.8035 106.784 13.5435V9.22179H109.36C109.899 9.22179 110.388 9.49189 110.908 10.0591C111.337 10.548 111.636 11.5042 111.636 12.382C111.617 13.3733 111.356 14.316 110.951 14.7968H110.959Z" fill="#333333"/>
<path d="M134.043 0H131.885C127.263 0 124.943 2.30941 124.943 6.84181V18.0215C124.942 18.0711 124.951 18.1205 124.969 18.1665C124.988 18.2126 125.016 18.2544 125.051 18.2895C125.086 18.3246 125.127 18.3522 125.173 18.3707C125.219 18.3891 125.269 18.3981 125.318 18.397H134.41C135.523 18.3877 136.62 18.1326 137.623 17.6498C138.627 17.1671 139.511 16.4686 140.214 15.6041C141.691 13.8039 142.489 11.5407 142.469 9.21065V9.18364C142.494 6.84541 141.696 4.57305 140.214 2.7659C138.687 0.966983 136.244 0 134.043 0ZM139.437 9.21065C139.449 10.838 138.926 12.4239 137.948 13.7241C137.01 14.9315 135.75 15.6311 134.442 15.6311H127.985V6.5717C127.985 4.08672 129.258 2.81992 131.794 2.81992H134.423C137.158 2.81992 139.437 5.72087 139.437 9.18364V9.21065Z" fill="#333333"/>
<path d="M121.882 6.57715H119.118V3.19271V6.2125V3.1846C119.117 3.09266 119.08 3.00473 119.015 2.93997C118.95 2.8752 118.862 2.83886 118.77 2.83887H116.504C116.413 2.83887 116.325 2.87529 116.26 2.94013C116.196 3.00497 116.159 3.09291 116.159 3.1846V13.6134C116.151 14.2785 116.287 14.9374 116.56 15.544C116.833 16.1506 117.234 16.6901 117.737 17.1248V17.1248C118.741 17.9224 119.991 18.3463 121.273 18.3241H121.966C122.013 18.3245 122.06 18.3154 122.104 18.2975C122.147 18.2796 122.187 18.2531 122.22 18.2197C122.254 18.1863 122.28 18.1465 122.298 18.1028C122.316 18.059 122.325 18.0121 122.325 17.9649V15.7851C122.325 15.6898 122.287 15.5984 122.22 15.5311C122.152 15.4637 122.061 15.4259 121.966 15.4259H121.251C120.884 15.4259 119.094 15.2719 119.094 13.3811V9.2404H121.982C122.028 9.24076 122.073 9.23208 122.115 9.21486C122.157 9.19765 122.196 9.17224 122.228 9.1401C122.26 9.10796 122.286 9.06972 122.304 9.0276C122.321 8.98548 122.33 8.9403 122.33 8.89467V7.00392C122.331 6.94578 122.32 6.8881 122.297 6.83449C122.275 6.78088 122.241 6.73251 122.199 6.69243C122.157 6.65234 122.107 6.62141 122.053 6.60157C121.998 6.58173 121.94 6.57341 121.882 6.57715V6.57715Z" fill="#333333"/>
<path d="M101.409 2.92554H99.1542C99.0633 2.92554 98.9762 2.96168 98.912 3.02601C98.8477 3.09034 98.8116 3.17759 98.8116 3.26857V6.66112H96.236C95.5199 6.66706 94.8135 6.82773 94.1651 7.13213C93.5167 7.43653 92.9416 7.8775 92.479 8.42491C91.5203 9.55061 91.0019 10.9863 91.0199 12.4657C91.0021 13.9978 91.5397 15.4843 92.5329 16.6497C92.9874 17.1917 93.5538 17.6285 94.193 17.9302C94.8323 18.2319 95.5293 18.3913 96.236 18.3973H96.6648C97.9481 18.4141 99.194 17.964 100.171 17.1305C100.675 16.6976 101.078 16.1583 101.349 15.5511C101.621 14.944 101.754 14.2841 101.741 13.6191V3.26857C101.741 3.17944 101.706 3.09378 101.644 3.02975C101.582 2.96572 101.498 2.92834 101.409 2.92554V2.92554ZM98.8116 13.6245C98.8281 13.8849 98.7884 14.1458 98.6954 14.3896C98.6023 14.6333 98.458 14.8541 98.2722 15.0371H98.2588C97.8191 15.4501 97.2431 15.6866 96.6405 15.7016H96.414C96.0731 15.7197 95.733 15.6532 95.4238 15.5081C95.1147 15.363 94.8462 15.1437 94.642 14.8697C94.2347 14.3916 93.9731 13.4462 93.9731 12.4576C93.9731 11.5771 94.2725 10.6209 94.7013 10.132C95.2219 9.55396 95.6992 9.29466 96.2494 9.29466H98.8251L98.8116 13.6245Z" fill="#333333"/>
</svg>
