<svg width="223" height="60" viewBox="0 0 223 60" fill="none" xmlns="http://www.w3.org/2000/svg">
<path d="M118.806 40C118.512 40 118.236 39.9764 117.979 39.9292C117.725 39.8857 117.514 39.8294 117.347 39.7604L117.87 38.0291C118.142 38.1126 118.387 38.158 118.605 38.1652C118.826 38.1725 119.017 38.1217 119.177 38.0128C119.34 37.9039 119.472 37.7188 119.574 37.4575L119.71 37.1036L116.71 28.5015H119.149L120.881 34.6427H120.968L122.715 28.5015H125.171L121.92 37.7678C121.764 38.2179 121.552 38.6099 121.283 38.9438C121.019 39.2813 120.683 39.5408 120.276 39.7223C119.87 39.9074 119.38 40 118.806 40Z" fill="#333333"/>
<path d="M108.094 36.8639V25.7139H110.413V29.906H110.484C110.586 29.681 110.733 29.4523 110.925 29.22C111.121 28.9841 111.375 28.7881 111.687 28.6321C112.003 28.4724 112.395 28.3925 112.863 28.3925C113.473 28.3925 114.036 28.5522 114.551 28.8716C115.066 29.1874 115.478 29.6647 115.787 30.3035C116.095 30.9387 116.25 31.7353 116.25 32.6936C116.25 33.6264 116.099 34.414 115.798 35.0564C115.5 35.6952 115.094 36.1798 114.578 36.5101C114.066 36.8367 113.493 37.0001 112.858 37.0001C112.408 37.0001 112.025 36.9257 111.709 36.7768C111.397 36.628 111.141 36.4411 110.941 36.2161C110.742 35.9874 110.589 35.7569 110.484 35.5246H110.381V36.8639H108.094ZM110.364 32.6827C110.364 33.1799 110.433 33.6137 110.571 33.9839C110.709 34.3541 110.909 34.6426 111.17 34.8495C111.431 35.0528 111.749 35.1544 112.123 35.1544C112.5 35.1544 112.82 35.051 113.081 34.8441C113.342 34.6336 113.54 34.3432 113.674 33.973C113.812 33.5991 113.881 33.169 113.881 32.6827C113.881 32.1999 113.814 31.7753 113.68 31.4087C113.546 31.0421 113.348 30.7554 113.086 30.5485C112.825 30.3416 112.504 30.2381 112.123 30.2381C111.745 30.2381 111.426 30.338 111.165 30.5376C110.907 30.7372 110.709 31.0203 110.571 31.3869C110.433 31.7535 110.364 32.1854 110.364 32.6827Z" fill="#333333"/>
<path d="M98.1436 37.0001C97.5084 37.0001 96.9331 36.8367 96.4177 36.5101C95.9059 36.1798 95.4994 35.6952 95.1981 35.0564C94.9005 34.414 94.7517 33.6264 94.7517 32.6936C94.7517 31.7353 94.906 30.9387 95.2145 30.3035C95.523 29.6647 95.9331 29.1874 96.4449 28.8716C96.9603 28.5522 97.5247 28.3925 98.1381 28.3925C98.6063 28.3925 98.9965 28.4724 99.3087 28.6321C99.6244 28.7881 99.8785 28.9841 100.071 29.22C100.267 29.4523 100.416 29.681 100.517 29.906H100.588V25.7139H102.902V36.8639H100.615V35.5246H100.517C100.408 35.7569 100.254 35.9874 100.055 36.2161C99.8585 36.4411 99.6026 36.628 99.2869 36.7768C98.9747 36.9257 98.5936 37.0001 98.1436 37.0001ZM98.8785 35.1544C99.2524 35.1544 99.5682 35.0528 99.8259 34.8495C100.087 34.6426 100.287 34.3541 100.425 33.9839C100.566 33.6137 100.637 33.1799 100.637 32.6827C100.637 32.1854 100.568 31.7535 100.43 31.3869C100.292 31.0203 100.093 30.7372 99.8313 30.5376C99.57 30.338 99.2524 30.2381 98.8785 30.2381C98.4974 30.2381 98.1762 30.3416 97.9149 30.5485C97.6536 30.7554 97.4557 31.0421 97.3215 31.4087C97.1872 31.7753 97.12 32.1999 97.12 32.6827C97.12 33.169 97.1872 33.5991 97.3215 33.973C97.4594 34.3432 97.6572 34.6336 97.9149 34.8441C98.1762 35.051 98.4974 35.1544 98.8785 35.1544Z" fill="#333333"/>
<path d="M89.8635 37.0274C89.0032 37.0274 88.2628 36.8531 87.6422 36.5047C87.0251 36.1526 86.5497 35.6554 86.2157 35.0129C85.8818 34.3669 85.7148 33.6028 85.7148 32.7209C85.7148 31.8606 85.8818 31.1057 86.2157 30.456C86.5497 29.8063 87.0197 29.3 87.6258 28.937C88.2356 28.5741 88.9506 28.3926 89.7709 28.3926C90.3226 28.3926 90.8362 28.4815 91.3117 28.6594C91.7908 28.8336 92.2082 29.0967 92.5639 29.4488C92.9232 29.8009 93.2027 30.2437 93.4023 30.7772C93.6019 31.3071 93.7017 31.9278 93.7017 32.6392V33.2762H86.6404V31.8389H91.5185C91.5185 31.5049 91.446 31.2091 91.3008 30.9514C91.1556 30.6937 90.9541 30.4923 90.6964 30.3471C90.4424 30.1983 90.1466 30.1239 89.809 30.1239C89.4569 30.1239 89.1448 30.2056 88.8726 30.3689C88.604 30.5286 88.3935 30.7445 88.241 31.0168C88.0886 31.2854 88.0106 31.5848 88.0069 31.9151V33.2816C88.0069 33.6954 88.0831 34.0529 88.2356 34.3542C88.3917 34.6554 88.6113 34.8877 88.8944 35.051C89.1775 35.2144 89.5132 35.296 89.9016 35.296C90.1593 35.296 90.3952 35.2597 90.6093 35.1872C90.8235 35.1146 91.0068 35.0057 91.1592 34.8605C91.3117 34.7153 91.4278 34.5375 91.5077 34.3269L93.6527 34.4685C93.5439 34.9839 93.3206 35.434 92.9831 35.8187C92.6492 36.1998 92.2172 36.4974 91.6873 36.7116C91.161 36.9221 90.5531 37.0274 89.8635 37.0274Z" fill="#333333"/>
<path d="M80.3217 36.8642V28.5016H82.5702V29.9607H82.6573C82.8097 29.4417 83.0656 29.0497 83.4249 28.7847C83.7843 28.5161 84.1981 28.3818 84.6663 28.3818C84.7824 28.3818 84.9076 28.3891 85.0419 28.4036C85.1762 28.4181 85.2942 28.4381 85.3958 28.4635V30.5215C85.2869 30.4888 85.1363 30.4598 84.9439 30.4344C84.7516 30.409 84.5755 30.3963 84.4158 30.3963C84.0746 30.3963 83.7698 30.4707 83.5012 30.6195C83.2362 30.7647 83.0257 30.9679 82.8696 31.2292C82.7172 31.4906 82.641 31.7918 82.641 32.133V36.8642H80.3217Z" fill="#333333"/>
<path d="M75.1227 37.0274C74.2625 37.0274 73.5221 36.8531 72.9014 36.5047C72.2844 36.1526 71.8089 35.6554 71.475 35.0129C71.1411 34.3669 70.9741 33.6028 70.9741 32.7209C70.9741 31.8606 71.1411 31.1057 71.475 30.456C71.8089 29.8063 72.279 29.3 72.8851 28.937C73.4949 28.5741 74.2099 28.3926 75.0302 28.3926C75.5819 28.3926 76.0955 28.4815 76.5709 28.6594C77.05 28.8336 77.4674 29.0967 77.8231 29.4488C78.1825 29.8009 78.462 30.2437 78.6616 30.7772C78.8612 31.3071 78.961 31.9278 78.961 32.6392V33.2762H71.8997V31.8389H76.7778C76.7778 31.5049 76.7052 31.2091 76.5601 30.9514C76.4149 30.6937 76.2134 30.4923 75.9557 30.3471C75.7017 30.1983 75.4058 30.1239 75.0683 30.1239C74.7162 30.1239 74.4041 30.2056 74.1319 30.3689C73.8633 30.5286 73.6528 30.7445 73.5003 31.0168C73.3479 31.2854 73.2698 31.5848 73.2662 31.9151V33.2816C73.2662 33.6954 73.3424 34.0529 73.4949 34.3542C73.6509 34.6554 73.8705 34.8877 74.1536 35.051C74.4367 35.2144 74.7725 35.296 75.1608 35.296C75.4185 35.296 75.6545 35.2597 75.8686 35.1872C76.0828 35.1146 76.2661 35.0057 76.4185 34.8605C76.5709 34.7153 76.6871 34.5375 76.7669 34.3269L78.912 34.4685C78.8031 34.9839 78.5799 35.434 78.2424 35.8187C77.9084 36.1998 77.4765 36.4974 76.9466 36.7116C76.4203 36.9221 75.8124 37.0274 75.1227 37.0274Z" fill="#333333"/>
<path d="M60.2839 36.864L58.0082 28.5015H60.3547L61.6505 34.1201H61.7267L63.0769 28.5015H65.3799L66.7518 34.0874H66.8226L68.0966 28.5015H70.4377L68.1674 36.864H65.712L64.2747 31.6048H64.1712L62.7339 36.864H60.2839Z" fill="#333333"/>
<path d="M53.3731 37.0274C52.5275 37.0274 51.7961 36.8477 51.1791 36.4884C50.5657 36.1254 50.092 35.6209 49.7581 34.9748C49.4242 34.3251 49.2572 33.572 49.2572 32.7154C49.2572 31.8516 49.4242 31.0966 49.7581 30.4506C50.092 29.8009 50.5657 29.2963 51.1791 28.937C51.7961 28.5741 52.5275 28.3926 53.3731 28.3926C54.2188 28.3926 54.9484 28.5741 55.5618 28.937C56.1788 29.2963 56.6543 29.8009 56.9882 30.4506C57.3221 31.0966 57.4891 31.8516 57.4891 32.7154C57.4891 33.572 57.3221 34.3251 56.9882 34.9748C56.6543 35.6209 56.1788 36.1254 55.5618 36.4884C54.9484 36.8477 54.2188 37.0274 53.3731 37.0274ZM53.384 35.2307C53.7688 35.2307 54.09 35.1218 54.3477 34.9041C54.6054 34.6826 54.7996 34.3814 54.9302 34.0003C55.0645 33.6192 55.1317 33.1854 55.1317 32.6991C55.1317 32.2127 55.0645 31.779 54.9302 31.3979C54.7996 31.0168 54.6054 30.7155 54.3477 30.4941C54.09 30.2727 53.7688 30.162 53.384 30.162C52.9957 30.162 52.669 30.2727 52.4041 30.4941C52.1427 30.7155 51.9449 31.0168 51.8106 31.3979C51.6799 31.779 51.6146 32.2127 51.6146 32.6991C51.6146 33.1854 51.6799 33.6192 51.8106 34.0003C51.9449 34.3814 52.1427 34.6826 52.4041 34.9041C52.669 35.1218 52.9957 35.2307 53.384 35.2307Z" fill="#333333"/>
<path d="M40 36.8639V25.7139H44.3991C45.2447 25.7139 45.9652 25.8754 46.5605 26.1984C47.1557 26.5178 47.6094 26.9624 47.9216 27.5323C48.2373 28.0985 48.3952 28.7518 48.3952 29.4923C48.3952 30.2327 48.2355 30.886 47.9161 31.4522C47.5967 32.0185 47.1339 32.4594 46.5278 32.7752C45.9253 33.091 45.1957 33.2489 44.3392 33.2489H41.5353V31.3597H43.9581C44.4118 31.3597 44.7856 31.2816 45.0796 31.1256C45.3772 30.9659 45.5986 30.7463 45.7438 30.4668C45.8926 30.1837 45.967 29.8589 45.967 29.4923C45.967 29.122 45.8926 28.799 45.7438 28.5232C45.5986 28.2437 45.3772 28.0277 45.0796 27.8753C44.782 27.7192 44.4045 27.6412 43.9472 27.6412H42.3574V36.8639H40Z" fill="#333333"/>
<path d="M149.341 26.5828H144.217C144.167 26.5818 144.117 26.5909 144.071 26.6094C144.025 26.628 143.982 26.6557 143.947 26.6909C143.906 26.7354 143.874 26.7877 143.853 26.8447C143.832 26.9018 143.823 26.9624 143.826 27.0231V33.5462C143.812 34.2113 143.945 34.8713 144.217 35.4785C144.488 36.0857 144.891 36.625 145.395 37.0576C146.371 37.8933 147.618 38.3437 148.901 38.3244H149.33C150.037 38.3189 150.734 38.1598 151.374 37.8581C152.013 37.5564 152.579 37.1192 153.033 36.5768C154.027 35.4117 154.565 33.925 154.546 32.3928C154.568 30.9096 154.049 29.4694 153.087 28.3412C152.625 27.7962 152.052 27.357 151.405 27.0536C150.759 26.7502 150.055 26.5897 149.341 26.5828V26.5828ZM150.959 34.7968C150.755 35.0708 150.487 35.2901 150.177 35.4352C149.868 35.5804 149.528 35.6468 149.187 35.6287H148.955C148.353 35.6147 147.777 35.3792 147.337 34.967L147.324 34.9535C147.138 34.7709 146.994 34.5505 146.901 34.3072C146.808 34.064 146.768 33.8035 146.784 33.5435V29.2218H149.36C149.899 29.2218 150.388 29.4919 150.908 30.0591C151.337 30.548 151.636 31.5042 151.636 32.382C151.617 33.3733 151.356 34.316 150.951 34.7968H150.959Z" fill="#333333"/>
<path d="M174.043 20H171.885C167.263 20 164.943 22.3094 164.943 26.8418V38.0215C164.942 38.0711 164.951 38.1205 164.969 38.1665C164.988 38.2126 165.016 38.2544 165.051 38.2895C165.086 38.3246 165.127 38.3522 165.173 38.3707C165.219 38.3891 165.269 38.3981 165.318 38.397H174.41C175.523 38.3877 176.62 38.1326 177.623 37.6498C178.627 37.1671 179.511 36.4686 180.214 35.6041C181.691 33.8039 182.489 31.5407 182.469 29.2106V29.1836C182.494 26.8454 181.696 24.573 180.214 22.7659C178.687 20.967 176.244 20 174.043 20ZM179.437 29.2106C179.449 30.838 178.926 32.4239 177.948 33.7241C177.01 34.9315 175.75 35.6311 174.442 35.6311H167.985V26.5717C167.985 24.0867 169.258 22.8199 171.794 22.8199H174.423C177.158 22.8199 179.437 25.7209 179.437 29.1836V29.2106Z" fill="#333333"/>
<path d="M161.882 26.5771H159.118V23.1927V26.2125V23.1846C159.117 23.0927 159.08 23.0047 159.015 22.94C158.95 22.8752 158.862 22.8389 158.77 22.8389H156.504C156.413 22.8389 156.325 22.8753 156.26 22.9401C156.196 23.005 156.159 23.0929 156.159 23.1846V33.6134C156.151 34.2785 156.287 34.9374 156.56 35.544C156.833 36.1506 157.234 36.6901 157.737 37.1248V37.1248C158.741 37.9224 159.991 38.3463 161.273 38.3241H161.966C162.013 38.3245 162.06 38.3154 162.104 38.2975C162.147 38.2796 162.187 38.2531 162.22 38.2197C162.254 38.1863 162.28 38.1465 162.298 38.1028C162.316 38.059 162.325 38.0121 162.325 37.9649V35.7851C162.325 35.6898 162.287 35.5984 162.22 35.5311C162.152 35.4637 162.061 35.4259 161.966 35.4259H161.251C160.884 35.4259 159.094 35.2719 159.094 33.3811V29.2404H161.982C162.028 29.2408 162.073 29.2321 162.115 29.2149C162.157 29.1976 162.196 29.1722 162.228 29.1401C162.26 29.108 162.286 29.0697 162.304 29.0276C162.321 28.9855 162.33 28.9403 162.33 28.8947V27.0039C162.331 26.9458 162.32 26.8881 162.297 26.8345C162.275 26.7809 162.241 26.7325 162.199 26.6924C162.157 26.6523 162.107 26.6214 162.053 26.6016C161.998 26.5817 161.94 26.5734 161.882 26.5771V26.5771Z" fill="#333333"/>
<path d="M141.409 22.9255H139.154C139.063 22.9255 138.976 22.9617 138.912 23.026C138.848 23.0903 138.812 23.1776 138.812 23.2686V26.6611H136.236C135.52 26.6671 134.814 26.8277 134.165 27.1321C133.517 27.4365 132.942 27.8775 132.479 28.4249C131.52 29.5506 131.002 30.9863 131.02 32.4657C131.002 33.9978 131.54 35.4843 132.533 36.6497C132.987 37.1917 133.554 37.6285 134.193 37.9302C134.832 38.2319 135.529 38.3913 136.236 38.3973H136.665C137.948 38.4141 139.194 37.964 140.171 37.1305C140.675 36.6976 141.078 36.1583 141.349 35.5511C141.621 34.944 141.754 34.2841 141.741 33.6191V23.2686C141.741 23.1794 141.706 23.0938 141.644 23.0298C141.582 22.9657 141.498 22.9283 141.409 22.9255V22.9255ZM138.812 33.6245C138.828 33.8849 138.788 34.1458 138.695 34.3896C138.602 34.6333 138.458 34.8541 138.272 35.0371H138.259C137.819 35.4501 137.243 35.6866 136.641 35.7016H136.414C136.073 35.7197 135.733 35.6532 135.424 35.5081C135.115 35.363 134.846 35.1437 134.642 34.8697C134.235 34.3916 133.973 33.4462 133.973 32.4576C133.973 31.5771 134.273 30.6209 134.701 30.132C135.222 29.554 135.699 29.2947 136.249 29.2947H138.825L138.812 33.6245Z" fill="#333333"/>
</svg>

